<mxfile host="app.diagrams.net" agent="Mozilla/5.0 (Windows NT 10.0; Win64; x64) AppleWebKit/537.36 (KHTML, like Gecko) Chrome/136.0.0.0 Safari/537.36 Edg/136.0.0.0" version="27.0.3">
  <diagram name="Page-1" id="o7Ui0kuMMo8Vh2SqQs6s">
    <mxGraphModel dx="1244" dy="699" grid="1" gridSize="10" guides="1" tooltips="1" connect="1" arrows="1" fold="1" page="1" pageScale="1" pageWidth="850" pageHeight="1100" math="0" shadow="0">
      <root>
        <mxCell id="0" />
        <mxCell id="1" parent="0" />
        <mxCell id="P8vZ4wlfMPvXxZy_Nwmm-1" value="" style="ellipse;html=1;shape=startState;fillColor=#000000;strokeColor=#ff0000;" vertex="1" parent="1">
          <mxGeometry x="50" y="150" width="30" height="30" as="geometry" />
        </mxCell>
        <mxCell id="P8vZ4wlfMPvXxZy_Nwmm-2" value="" style="edgeStyle=orthogonalEdgeStyle;html=1;verticalAlign=bottom;endArrow=open;endSize=8;strokeColor=#ff0000;rounded=0;" edge="1" source="P8vZ4wlfMPvXxZy_Nwmm-1" parent="1" target="P8vZ4wlfMPvXxZy_Nwmm-4">
          <mxGeometry relative="1" as="geometry">
            <mxPoint x="195" y="200" as="targetPoint" />
          </mxGeometry>
        </mxCell>
        <mxCell id="P8vZ4wlfMPvXxZy_Nwmm-3" value="" style="ellipse;html=1;shape=endState;fillColor=#000000;strokeColor=#ff0000;" vertex="1" parent="1">
          <mxGeometry x="565" y="450" width="30" height="30" as="geometry" />
        </mxCell>
        <mxCell id="P8vZ4wlfMPvXxZy_Nwmm-4" value="Giriş Doğrulanmadı" style="rounded=1;whiteSpace=wrap;html=1;arcSize=40;fontColor=#000000;fillColor=#ffffc0;strokeColor=#ff0000;" vertex="1" parent="1">
          <mxGeometry x="300" y="145" width="120" height="40" as="geometry" />
        </mxCell>
        <mxCell id="P8vZ4wlfMPvXxZy_Nwmm-6" value="&amp;lt;&amp;lt;M&amp;gt;&amp;gt;Uygulama Başlatıldı" style="text;html=1;align=center;verticalAlign=middle;whiteSpace=wrap;rounded=0;" vertex="1" parent="1">
          <mxGeometry x="120" y="130" width="150" height="30" as="geometry" />
        </mxCell>
        <mxCell id="P8vZ4wlfMPvXxZy_Nwmm-7" value="Bilgiler Doğrulanıyor" style="rounded=1;whiteSpace=wrap;html=1;arcSize=40;fontColor=#000000;fillColor=#ffffc0;strokeColor=#ff0000;" vertex="1" parent="1">
          <mxGeometry x="620" y="185" width="120" height="40" as="geometry" />
        </mxCell>
        <mxCell id="P8vZ4wlfMPvXxZy_Nwmm-8" value="" style="edgeStyle=orthogonalEdgeStyle;html=1;verticalAlign=bottom;endArrow=open;endSize=8;strokeColor=#ff0000;rounded=0;" edge="1" source="P8vZ4wlfMPvXxZy_Nwmm-7" parent="1" target="P8vZ4wlfMPvXxZy_Nwmm-11">
          <mxGeometry relative="1" as="geometry">
            <mxPoint x="580" y="370" as="targetPoint" />
          </mxGeometry>
        </mxCell>
        <mxCell id="P8vZ4wlfMPvXxZy_Nwmm-9" value="" style="edgeStyle=orthogonalEdgeStyle;html=1;verticalAlign=bottom;endArrow=open;endSize=8;strokeColor=#ff0000;rounded=0;" edge="1" parent="1" source="P8vZ4wlfMPvXxZy_Nwmm-4" target="P8vZ4wlfMPvXxZy_Nwmm-7">
          <mxGeometry relative="1" as="geometry">
            <mxPoint x="590" y="260" as="targetPoint" />
            <mxPoint x="590" y="200" as="sourcePoint" />
            <Array as="points">
              <mxPoint x="680" y="165" />
            </Array>
          </mxGeometry>
        </mxCell>
        <mxCell id="P8vZ4wlfMPvXxZy_Nwmm-10" value="&amp;lt;&amp;lt;M&amp;gt;&amp;gt; Kullanıcı bilgileri girildi" style="text;html=1;align=center;verticalAlign=middle;whiteSpace=wrap;rounded=0;" vertex="1" parent="1">
          <mxGeometry x="470" y="140" width="170" height="30" as="geometry" />
        </mxCell>
        <mxCell id="P8vZ4wlfMPvXxZy_Nwmm-11" value="Giriş Doğrulandı" style="rounded=1;whiteSpace=wrap;html=1;arcSize=40;fontColor=#000000;fillColor=#ffffc0;strokeColor=#ff0000;" vertex="1" parent="1">
          <mxGeometry x="520" y="349.9999999999999" width="120" height="40" as="geometry" />
        </mxCell>
        <mxCell id="P8vZ4wlfMPvXxZy_Nwmm-12" value="" style="edgeStyle=orthogonalEdgeStyle;html=1;verticalAlign=bottom;endArrow=open;endSize=8;strokeColor=#ff0000;rounded=0;" edge="1" source="P8vZ4wlfMPvXxZy_Nwmm-11" parent="1">
          <mxGeometry relative="1" as="geometry">
            <mxPoint x="580" y="449.9999999999999" as="targetPoint" />
          </mxGeometry>
        </mxCell>
        <mxCell id="P8vZ4wlfMPvXxZy_Nwmm-14" value="" style="edgeStyle=orthogonalEdgeStyle;html=1;verticalAlign=bottom;endArrow=open;endSize=8;strokeColor=#ff0000;rounded=0;" edge="1" parent="1" source="P8vZ4wlfMPvXxZy_Nwmm-7" target="P8vZ4wlfMPvXxZy_Nwmm-4">
          <mxGeometry relative="1" as="geometry">
            <mxPoint x="730" y="405" as="targetPoint" />
            <mxPoint x="830" y="280" as="sourcePoint" />
            <Array as="points">
              <mxPoint x="730" y="90" />
              <mxPoint x="360" y="90" />
            </Array>
          </mxGeometry>
        </mxCell>
        <mxCell id="P8vZ4wlfMPvXxZy_Nwmm-15" value="&amp;lt;&amp;lt;M&amp;gt;&amp;gt; Bilgiler Yanlış" style="text;html=1;align=center;verticalAlign=middle;whiteSpace=wrap;rounded=0;" vertex="1" parent="1">
          <mxGeometry x="470" y="70" width="155" height="30" as="geometry" />
        </mxCell>
        <mxCell id="P8vZ4wlfMPvXxZy_Nwmm-16" value="&amp;lt;&amp;lt;M&amp;gt;&amp;gt; Bilgiler Doğru" style="text;html=1;align=center;verticalAlign=middle;whiteSpace=wrap;rounded=0;" vertex="1" parent="1">
          <mxGeometry x="530" y="260" width="155" height="30" as="geometry" />
        </mxCell>
        <mxCell id="P8vZ4wlfMPvXxZy_Nwmm-19" value="" style="ellipse;html=1;shape=startState;fillColor=#000000;strokeColor=#ff0000;" vertex="1" parent="1">
          <mxGeometry x="120" y="440" width="30" height="30" as="geometry" />
        </mxCell>
        <mxCell id="P8vZ4wlfMPvXxZy_Nwmm-21" value="Onay bekleniyor" style="rounded=1;whiteSpace=wrap;html=1;arcSize=40;fontColor=#000000;fillColor=#ffffc0;strokeColor=#ff0000;" vertex="1" parent="1">
          <mxGeometry x="75" y="610" width="120" height="40" as="geometry" />
        </mxCell>
        <mxCell id="P8vZ4wlfMPvXxZy_Nwmm-22" value="" style="edgeStyle=orthogonalEdgeStyle;html=1;verticalAlign=bottom;endArrow=open;endSize=8;strokeColor=#ff0000;rounded=0;" edge="1" source="P8vZ4wlfMPvXxZy_Nwmm-21" parent="1" target="P8vZ4wlfMPvXxZy_Nwmm-26">
          <mxGeometry relative="1" as="geometry">
            <mxPoint x="135" y="810" as="targetPoint" />
          </mxGeometry>
        </mxCell>
        <mxCell id="P8vZ4wlfMPvXxZy_Nwmm-23" value="" style="edgeStyle=orthogonalEdgeStyle;html=1;verticalAlign=bottom;endArrow=open;endSize=8;strokeColor=#ff0000;rounded=0;" edge="1" parent="1" source="P8vZ4wlfMPvXxZy_Nwmm-19" target="P8vZ4wlfMPvXxZy_Nwmm-21">
          <mxGeometry relative="1" as="geometry">
            <mxPoint x="140" y="600" as="targetPoint" />
            <mxPoint x="135" y="470" as="sourcePoint" />
          </mxGeometry>
        </mxCell>
        <mxCell id="P8vZ4wlfMPvXxZy_Nwmm-25" value="&amp;lt;&amp;lt;M&amp;gt;&amp;gt; Yeni çalışan bilgileri girildi" style="text;html=1;align=center;verticalAlign=middle;whiteSpace=wrap;rounded=0;" vertex="1" parent="1">
          <mxGeometry x="150" y="535" width="190" height="30" as="geometry" />
        </mxCell>
        <mxCell id="P8vZ4wlfMPvXxZy_Nwmm-26" value="Çalışan eklendi" style="rounded=1;whiteSpace=wrap;html=1;arcSize=40;fontColor=#000000;fillColor=#ffffc0;strokeColor=#ff0000;" vertex="1" parent="1">
          <mxGeometry x="75" y="790" width="120" height="40" as="geometry" />
        </mxCell>
        <mxCell id="P8vZ4wlfMPvXxZy_Nwmm-27" value="" style="edgeStyle=orthogonalEdgeStyle;html=1;verticalAlign=bottom;endArrow=open;endSize=8;strokeColor=#ff0000;rounded=0;" edge="1" source="P8vZ4wlfMPvXxZy_Nwmm-26" parent="1">
          <mxGeometry relative="1" as="geometry">
            <mxPoint x="135" y="890" as="targetPoint" />
          </mxGeometry>
        </mxCell>
        <mxCell id="P8vZ4wlfMPvXxZy_Nwmm-28" value="&amp;lt;&amp;lt;M&amp;gt;&amp;gt; Onaylandı" style="text;html=1;align=center;verticalAlign=middle;whiteSpace=wrap;rounded=0;" vertex="1" parent="1">
          <mxGeometry x="150" y="700" width="130" height="30" as="geometry" />
        </mxCell>
        <mxCell id="P8vZ4wlfMPvXxZy_Nwmm-29" value="" style="ellipse;html=1;shape=endState;fillColor=#000000;strokeColor=#ff0000;" vertex="1" parent="1">
          <mxGeometry x="120" y="890" width="30" height="30" as="geometry" />
        </mxCell>
        <mxCell id="P8vZ4wlfMPvXxZy_Nwmm-30" value="" style="edgeStyle=orthogonalEdgeStyle;html=1;verticalAlign=bottom;endArrow=open;endSize=8;strokeColor=#ff0000;rounded=0;exitX=1;exitY=0.5;exitDx=0;exitDy=0;" edge="1" parent="1" source="P8vZ4wlfMPvXxZy_Nwmm-21" target="P8vZ4wlfMPvXxZy_Nwmm-31">
          <mxGeometry relative="1" as="geometry">
            <mxPoint x="350" y="770" as="targetPoint" />
            <mxPoint x="350" y="630" as="sourcePoint" />
          </mxGeometry>
        </mxCell>
        <mxCell id="P8vZ4wlfMPvXxZy_Nwmm-31" value="Girilen bilgiler silinir" style="rounded=1;whiteSpace=wrap;html=1;arcSize=40;fontColor=#000000;fillColor=#ffffc0;strokeColor=#ff0000;" vertex="1" parent="1">
          <mxGeometry x="290" y="790" width="120" height="40" as="geometry" />
        </mxCell>
        <mxCell id="P8vZ4wlfMPvXxZy_Nwmm-32" value="" style="edgeStyle=orthogonalEdgeStyle;html=1;verticalAlign=bottom;endArrow=open;endSize=8;strokeColor=#ff0000;rounded=0;" edge="1" source="P8vZ4wlfMPvXxZy_Nwmm-31" parent="1">
          <mxGeometry relative="1" as="geometry">
            <mxPoint x="350" y="890" as="targetPoint" />
          </mxGeometry>
        </mxCell>
        <mxCell id="P8vZ4wlfMPvXxZy_Nwmm-33" value="&amp;lt;&amp;lt;M&amp;gt;&amp;gt; Reddedildi" style="text;html=1;align=center;verticalAlign=middle;whiteSpace=wrap;rounded=0;" vertex="1" parent="1">
          <mxGeometry x="360" y="700" width="130" height="30" as="geometry" />
        </mxCell>
        <mxCell id="P8vZ4wlfMPvXxZy_Nwmm-34" value="" style="ellipse;html=1;shape=endState;fillColor=#000000;strokeColor=#ff0000;" vertex="1" parent="1">
          <mxGeometry x="335" y="890" width="30" height="30" as="geometry" />
        </mxCell>
      </root>
    </mxGraphModel>
  </diagram>
</mxfile>
